# xmcd
#
# Track frame offsets:
#	150
#	17672
#	33468
#	48326
#	60559
#	77966
#	92581
#	109763
#	124264
#	138716
#	153368
#	171039
#	185819
#	200885
#	214123
#	232159
#	245742
#	260469
#	276863
#	290949
#
# Disc length: 4086 seconds
#
# Revision: 0
# Processed by: cddbd v1.5.2PL0 Copyright (c) Steve Scherf et al.
# Submitted via: EasyCDDAExtractor 10.0.5.1
#
DISCID=3a0ff414
DTITLE=Dolly Parton - Great Balls Of Fire - Dolly, Dolly, Dolly
DYEAR=2007
DGENRE=Country
TTITLE0=Star Of The Show
TTITLE1=Down
TTITLE2=You're The Only One
TTITLE3=Help!
TTITLE4=Do You Think That Time Stands Still
TTITLE5=Sweet Summer Lovin'
TTITLE6=Great Balls Of Fire
TTITLE7=Almost In Love
TTITLE8=It's Not My Affair Anymore
TTITLE9=Sandy's Song
TTITLE10=Starting Over Again
TTITLE11=Same Old Fool
TTITLE12=Old Flames (Can't Hold A Candle To You)
TTITLE13=You're The Only One I Ever Needed
TTITLE14=Say Goodnight
TTITLE15=Fool For Your Love
TTITLE16=Even A Fool Would Let Go
TTITLE17=Sweet Agony
TTITLE18=I Knew You When
TTITLE19=Packin' It Up
EXTD=
EXTT0=
EXTT1=
EXTT2=
EXTT3=
EXTT4=
EXTT5=
EXTT6=
EXTT7=
EXTT8=
EXTT9=
EXTT10=
EXTT11=
EXTT12=
EXTT13=
EXTT14=
EXTT15=
EXTT16=
EXTT17=
EXTT18=
EXTT19=
PLAYORDER=
